<?xml version="1.0" encoding="UTF-8"?>
<svg width="700pt" height="700pt" version="1.1" viewBox="0 0 700 700" xmlns="http://www.w3.org/2000/svg" xmlns:xlink="http://www.w3.org/1999/xlink">
 
 <g>
  <path fill="#42ff55" d="m350 46.668c-128.71 0-233.33 104.62-233.33 233.33 0 5.1328 4.1992 9.332 9.332 9.332s9.332-4.1992 9.332-9.332c0-118.35 96.32-214.67 214.67-214.67s214.67 96.32 214.67 214.67-96.32 214.67-214.67 214.67c-59.547 0-115.17-24.172-155.68-66.922h31.734c5.1328 0 9.332-4.1992 9.332-9.332 0-5.1328-4.1992-9.332-9.332-9.332h-52.078c-0.55859 0-1.1211 0.1875-1.6797 0.375-0.46484 0.09375-0.83984 0.09375-1.2148 0.28125-0.74609 0.28125-1.3984 0.55859-1.9609 1.0273-0.28125 0.1875-0.65234 0.28125-0.93359 0.46484-0.09375 0.09375-0.1875 0.28125-0.28125 0.375-0.46484 0.375-0.74609 0.83984-1.1211 1.3086-0.46484 0.55859-0.83984 1.1211-1.2148 1.7734-0.09375 0.28125-0.1875 0.55859-0.28125 0.83984-0.28125 0.93359-0.55859 1.8672-0.55859 2.8008v0.1875 52.078c0 5.1328 4.1992 9.332 9.332 9.332s9.332-4.1992 9.332-9.332v-27.254c43.684 44.699 103.14 69.992 166.61 69.992 128.71 0 233.33-104.62 233.33-233.33s-104.62-233.33-233.33-233.33z"/>
  <path fill="#42ff55" d="m390.6 132.25h-81.293c-5.1328 0-9.332 4.1992-9.332 9.332v25.105h-18.668c-11.199 0-20.254 9.0547-20.254 20.254v220.55c0 11.199 9.0547 20.254 20.254 20.254h137.29c11.199 0 20.254-9.0547 20.254-20.254l-0.003907-220.55c0-11.199-9.0547-20.254-20.254-20.254h-18.668v-25.105c0.003906-5.1328-4.1016-9.332-9.3281-9.332zm-71.867 18.668h62.625v15.773h-62.625zm101.45 36.023v220.55c0 0.83984-0.74609 1.5859-1.5859 1.5859h-137.2c-0.83984 0-1.5859-0.74609-1.5859-1.5859v-220.55c0-0.83984 0.74609-1.5859 1.5859-1.5859h137.29c0.84375 0 1.4961 0.65234 1.4961 1.5859z"/>
  <path fill="#42ff55" d="m367.27 286.72h-20.906l15.398-40.227c1.8672-4.8516-0.55859-10.172-5.4141-12.039-4.7617-1.8672-10.172 0.55859-12.039 5.4141l-20.254 52.922c-1.1211 2.8945-0.74609 6.0664 1.0273 8.5859s4.5742 4.0117 7.6523 4.0117h20.16l-18.574 42.094c-2.0547 4.668 0.09375 10.266 4.7617 12.32 1.2148 0.55859 2.5195 0.74609 3.7344 0.74609 3.5469 0 7-2.0547 8.5859-5.6016l24.359-55.254c1.3086-2.8945 1.0273-6.2539-0.74609-8.8672-1.7734-2.6094-4.6641-4.1055-7.7461-4.1055z"/>

 </g>
</svg>
